<?xml version="1.0" encoding="iso-8859-1"?>
<svg version="1.1"
     id="Home_1"
     xmlns="http://www.w3.org/2000/svg"
     xmlns:xlink="http://www.w3.org/1999/xlink"
     x="0px"
     y="0px"
     viewBox="0 0 511.995 511.995"
     style="enable-background:new 0 0 511.995 511.995;"
     xml:space="preserve">
  <g id="Home_1">
    <path d="M 495.75 224.816406 L 267.929688 4.851562 C 261.292969 -1.617188 250.707031 -1.617188 244.070312 4.851562 L 16.257812
      224.804688 C 12.90625 228.042969 11.011719 232.503906 11.011719 237.164062 C 11.011719 246.652344 18.703125 254.34375 28.1875
      254.34375 L 58.460938 254.34375 L 58.460938 494.824219 C 58.460938 504.308594 66.152344 512 75.640625 512 L 195.878906 512
      C 205.367188 512 213.058594 504.308594 213.058594 494.824219 L 213.058594 357.40625 L 298.941406 357.40625 L 298.941406
      494.824219 C 298.941406 504.308594 306.632812 512 316.121094 512 L 436.359375 512 C 445.847656 512 453.539062 504.308594
      453.539062 494.824219 L 453.539062 254.34375 L 483.8125 254.34375 C 488.46875 254.34375 492.925781 252.453125 496.164062
      249.101562 C 502.753906 242.28125 502.570312 231.40625 495.75 224.816406 Z M 453.539062 237.164062 C 444.050781 237.164062
      436.359375 244.855469 436.359375 254.34375 L 436.359375 494.824219 L 316.121094 494.824219 L 316.121094 357.40625 C 316.121094
      347.917969 308.429688 340.226562 298.941406 340.226562 L 213.058594 340.226562 C 203.570312 340.226562 195.878906 347.917969
      195.878906 357.40625 L 195.878906 494.824219 L 75.640625 494.824219 L 75.640625 254.34375 C 75.640625 244.855469 67.949219
      237.164062 58.460938 237.164062 L 28.1875 237.164062 L 256 17.210938 L 483.898438 237.164062 Z M 453.539062 237.164062 "/>
  </g>
</svg>
