<?xml version="1.0" encoding="utf-8"?>
<svg
  id="Logo"
  viewBox="0 0 97 25"
  stroke="currentColor"
  stroke-width="1"
  fill="none"
  stroke-linecap="round"
  stroke-linejoin="round"
>
  <title>Mini-TMQ logo</title>
  <path d="
    M 2 20.25, v -19, l 6.3 11.8, l 6.3 -11.8, v 19,
    m 5.45 0, v -11.75, m 0 -5.75, v -.5,
    m 5.05 18, v -11.75, m 0 3.2, a 4.475 4.475 0 0 1 8.7 0, v 8.55,
    m 4.9 0, v -11.75, m 0 -5.75, v -.5,
    m 4.6 11.9, h 7.1,
    m 1.6 -13.05, h 11, m -5.5 0, v 19.1,
    m 9.4 0, v -19, l 6.3 11.8, l 6.3 -11.8, v 19,
    m 5.7 -3.65, v -11.55, a 5.05 4.85 0 0 1 9.9 0, v 11.55, a 5.05 4.85 0 0 1 -9.9 0,
    m 4.95 1, v 5.8
  " />

  
  
  
</svg>