<?xml version="1.0" encoding="utf-8"?>
<svg
  id="Logo"
  viewBox="113.047 91.969 102.406 35.687"
  xmlns="http://www.w3.org/2000/svg"
  style="fill: rgb(0, 0, 0); white-space: pre;"
>
  <title>Mini-TMQ logo</title>
  <path d="M 115.996 120.959 C 115.809 120.959 115.646 120.909 115.506 120.809 C 115.366 120.702 115.296 120.556 115.296 120.369 L 115.296 101.159 C 115.296 100.899 115.366 100.722 115.506 100.629 C 115.646 100.536 115.809 100.489 115.996 100.489 C 116.163 100.489 116.316 100.549 116.456 100.669 C 116.596 100.796 116.726 100.946 116.846 101.119 C 116.973 101.299 117.073 101.472 117.146 101.639 L 122.266 111.659 L 127.446 101.639 C 127.539 101.472 127.643 101.299 127.756 101.119 C 127.869 100.946 127.999 100.796 128.146 100.669 C 128.299 100.549 128.449 100.489 128.596 100.489 C 128.803 100.489 128.969 100.536 129.096 100.629 C 129.229 100.722 129.296 100.899 129.296 101.159 L 129.296 120.369 C 129.296 120.556 129.226 120.702 129.086 120.809 C 128.946 120.909 128.783 120.959 128.596 120.959 C 128.429 120.959 128.269 120.909 128.116 120.809 C 127.969 120.702 127.896 120.556 127.896 120.369 L 127.896 103.679 L 122.916 113.199 C 122.823 113.406 122.719 113.552 122.606 113.639 C 122.493 113.719 122.379 113.759 122.266 113.759 C 122.173 113.759 122.069 113.719 121.956 113.639 C 121.849 113.552 121.749 113.406 121.656 113.199 L 116.696 103.629 L 116.696 120.369 C 116.696 120.556 116.623 120.702 116.476 120.809 C 116.323 120.909 116.163 120.959 115.996 120.959 ZM 134.021 120.959 C 133.834 120.959 133.677 120.899 133.551 120.779 C 133.417 120.659 133.351 120.522 133.351 120.369 L 133.351 108.299 C 133.351 108.132 133.417 107.999 133.551 107.899 C 133.677 107.792 133.834 107.739 134.021 107.739 C 134.227 107.739 134.397 107.792 134.531 107.899 C 134.657 107.999 134.721 108.132 134.721 108.299 L 134.721 120.369 C 134.721 120.522 134.657 120.659 134.531 120.779 C 134.397 120.899 134.227 120.959 134.021 120.959 Z M 134.021 103.569 C 133.741 103.569 133.494 103.466 133.281 103.259 C 133.067 103.059 132.961 102.819 132.961 102.539 C 132.961 102.259 133.067 102.026 133.281 101.839 C 133.494 101.652 133.741 101.559 134.021 101.559 C 134.321 101.559 134.567 101.652 134.761 101.839 C 134.961 102.026 135.061 102.259 135.061 102.539 C 135.061 102.819 134.961 103.059 134.761 103.259 C 134.567 103.466 134.321 103.569 134.021 103.569 ZM 139.059 120.959 C 138.872 120.959 138.716 120.899 138.589 120.779 C 138.456 120.659 138.389 120.522 138.389 120.369 L 138.389 108.299 C 138.389 108.132 138.456 107.999 138.589 107.899 C 138.716 107.792 138.872 107.739 139.059 107.739 C 139.266 107.739 139.429 107.792 139.549 107.899 C 139.669 107.999 139.729 108.132 139.729 108.299 L 139.729 109.699 C 140.049 109.159 140.522 108.669 141.149 108.229 C 141.776 107.796 142.556 107.579 143.489 107.579 C 144.402 107.579 145.236 107.806 145.989 108.259 C 146.749 108.719 147.356 109.336 147.809 110.109 C 148.269 110.882 148.499 111.746 148.499 112.699 L 148.499 120.369 C 148.499 120.556 148.429 120.702 148.289 120.809 C 148.149 120.909 147.986 120.959 147.799 120.959 C 147.646 120.959 147.496 120.909 147.349 120.809 C 147.202 120.702 147.129 120.556 147.129 120.369 L 147.129 112.699 C 147.129 112.046 146.956 111.429 146.609 110.849 C 146.262 110.269 145.809 109.792 145.249 109.419 C 144.689 109.046 144.062 108.859 143.369 108.859 C 142.776 108.859 142.202 109.016 141.649 109.329 C 141.102 109.636 140.649 110.072 140.289 110.639 C 139.936 111.212 139.759 111.899 139.759 112.699 L 139.759 120.369 C 139.759 120.522 139.696 120.659 139.569 120.779 C 139.436 120.899 139.266 120.959 139.059 120.959 ZM 152.691 120.959 C 152.505 120.959 152.348 120.899 152.221 120.779 C 152.088 120.659 152.021 120.522 152.021 120.369 L 152.021 108.299 C 152.021 108.132 152.088 107.999 152.221 107.899 C 152.348 107.792 152.505 107.739 152.691 107.739 C 152.898 107.739 153.068 107.792 153.201 107.899 C 153.328 107.999 153.391 108.132 153.391 108.299 L 153.391 120.369 C 153.391 120.522 153.328 120.659 153.201 120.779 C 153.068 120.899 152.898 120.959 152.691 120.959 Z M 152.691 103.569 C 152.411 103.569 152.165 103.466 151.951 103.259 C 151.738 103.059 151.631 102.819 151.631 102.539 C 151.631 102.259 151.738 102.026 151.951 101.839 C 152.165 101.652 152.411 101.559 152.691 101.559 C 152.991 101.559 153.238 101.652 153.431 101.839 C 153.631 102.026 153.731 102.259 153.731 102.539 C 153.731 102.819 153.631 103.059 153.431 103.259 C 153.238 103.466 152.991 103.569 152.691 103.569 ZM 164.42 114.859 L 157.14 114.859 C 156.993 114.859 156.863 114.796 156.75 114.669 C 156.636 114.549 156.58 114.406 156.58 114.239 C 156.58 114.052 156.636 113.899 156.75 113.779 C 156.863 113.659 156.993 113.599 157.14 113.599 L 164.42 113.599 C 164.593 113.599 164.74 113.659 164.86 113.779 C 164.98 113.899 165.04 114.052 165.04 114.239 C 165.04 114.406 164.98 114.549 164.86 114.669 C 164.74 114.796 164.593 114.859 164.42 114.859 ZM 171.473 120.959 C 171.286 120.959 171.123 120.909 170.983 120.809 C 170.843 120.702 170.773 120.556 170.773 120.369 L 170.773 101.839 L 165.933 101.839 C 165.746 101.839 165.596 101.769 165.483 101.629 C 165.37 101.489 165.313 101.332 165.313 101.159 C 165.313 100.992 165.37 100.839 165.483 100.699 C 165.596 100.559 165.746 100.489 165.933 100.489 L 176.993 100.489 C 177.2 100.489 177.353 100.556 177.453 100.689 C 177.56 100.816 177.613 100.966 177.613 101.139 C 177.613 101.326 177.566 101.489 177.473 101.629 C 177.38 101.769 177.22 101.839 176.993 101.839 L 172.173 101.839 L 172.173 120.369 C 172.173 120.556 172.103 120.702 171.963 120.809 C 171.823 120.909 171.66 120.959 171.473 120.959 ZM 180.909 120.959 C 180.722 120.959 180.559 120.909 180.419 120.809 C 180.279 120.702 180.209 120.556 180.209 120.369 L 180.209 101.159 C 180.209 100.899 180.279 100.722 180.419 100.629 C 180.559 100.536 180.722 100.489 180.909 100.489 C 181.076 100.489 181.229 100.549 181.369 100.669 C 181.509 100.796 181.639 100.946 181.759 101.119 C 181.886 101.299 181.986 101.472 182.059 101.639 L 187.179 111.659 L 192.359 101.639 C 192.452 101.472 192.556 101.299 192.669 101.119 C 192.782 100.946 192.912 100.796 193.059 100.669 C 193.212 100.549 193.362 100.489 193.509 100.489 C 193.716 100.489 193.882 100.536 194.009 100.629 C 194.142 100.722 194.209 100.899 194.209 101.159 L 194.209 120.369 C 194.209 120.556 194.139 120.702 193.999 120.809 C 193.859 120.909 193.696 120.959 193.509 120.959 C 193.342 120.959 193.182 120.909 193.029 120.809 C 192.882 120.702 192.809 120.556 192.809 120.369 L 192.809 103.679 L 187.829 113.199 C 187.736 113.406 187.632 113.552 187.519 113.639 C 187.406 113.719 187.292 113.759 187.179 113.759 C 187.086 113.759 186.982 113.719 186.869 113.639 C 186.762 113.552 186.662 113.406 186.569 113.199 L 181.609 103.629 L 181.609 120.369 C 181.609 120.556 181.536 120.702 181.389 120.809 C 181.236 120.909 181.076 120.959 180.909 120.959 ZM 204.114 124.009 C 203.967 124.009 203.834 123.959 203.714 123.859 C 203.587 123.752 203.524 123.606 203.524 123.419 L 203.524 121.099 C 202.557 121.026 201.69 120.789 200.924 120.389 C 200.157 119.982 199.56 119.359 199.134 118.519 C 198.7 117.679 198.484 116.599 198.484 115.279 L 198.484 106.339 C 198.484 104.926 198.734 103.792 199.234 102.939 C 199.727 102.092 200.397 101.472 201.244 101.079 C 202.097 100.686 203.044 100.489 204.084 100.489 C 205.15 100.489 206.114 100.686 206.974 101.079 C 207.834 101.472 208.51 102.092 209.004 102.939 C 209.497 103.792 209.744 104.926 209.744 106.339 L 209.744 115.279 C 209.744 116.599 209.53 117.679 209.104 118.519 C 208.67 119.359 208.07 119.982 207.304 120.389 C 206.544 120.789 205.687 121.026 204.734 121.099 L 204.734 123.419 C 204.734 123.606 204.667 123.752 204.534 123.859 C 204.407 123.959 204.267 124.009 204.114 124.009 Z M 203.524 119.759 L 203.524 117.539 C 203.524 117.339 203.587 117.192 203.714 117.099 C 203.834 117.006 203.967 116.959 204.114 116.959 C 204.267 116.959 204.407 117.006 204.534 117.099 C 204.667 117.192 204.734 117.339 204.734 117.539 L 204.734 119.729 C 205.854 119.636 206.734 119.226 207.374 118.499 C 208.02 117.766 208.344 116.692 208.344 115.279 L 208.344 106.339 C 208.344 104.812 207.967 103.679 207.214 102.939 C 206.454 102.206 205.41 101.839 204.084 101.839 C 202.764 101.839 201.73 102.206 200.984 102.939 C 200.237 103.679 199.864 104.812 199.864 106.339 L 199.864 115.279 C 199.864 116.692 200.184 117.766 200.824 118.499 C 201.47 119.226 202.37 119.646 203.524 119.759 Z"/>
</svg>