<?xml version="1.0" encoding="iso-8859-1"?>
<svg version="1.1"
     id="Info_1"
     xmlns="http://www.w3.org/2000/svg"
     xmlns:xlink="http://www.w3.org/1999/xlink"
     x="0px"
     y="0px"
     viewBox="0 0 511.995 511.995"
     style="enable-background:new 0 0 511.995 511.995;"
     xml:space="preserve">
<g>
  <path d="M 240 426.667969 L 48 426.667969 C 21.546875 426.667969 0 405.121094 0 378.667969 L 0 197.332031 C 0 170.878906 21.546875 149.332031 48 149.332031 L 293.332031 149.332031 C 319.785156 149.332031 341.332031 170.878906 341.332031 197.332031 L 341.332031 261.332031 C 341.332031 270.164062 334.164062 277.332031 325.332031 277.332031 C 316.5 277.332031 309.332031 270.164062 309.332031 261.332031 L 309.332031 197.332031 C 309.332031 188.523438 302.144531 181.332031 293.332031 181.332031 L 48 181.332031 C 39.1875 181.332031 32 188.523438 32 197.332031 L 32 378.667969 C 32 387.476562 39.1875 394.667969 48 394.667969 L 240 394.667969 C 248.832031 394.667969 256 401.835938 256 410.667969 C 256 419.5 248.832031 426.667969 240 426.667969 Z M 240 426.667969 "/>
  <path d="M 261.332031 181.332031 C 252.5 181.332031 245.332031 174.164062 245.332031 165.332031 L 245.332031 106.667969 C 245.332031 65.492188 211.839844 32 170.667969 32 C 129.492188 32 96 65.492188 96 106.667969 L 96 165.332031 C 96 174.164062 88.832031 181.332031 80 181.332031 C 71.167969 181.332031 64 174.164062 64 165.332031 L 64 106.667969 C 64 47.851562 111.851562 0 170.667969 0 C 229.484375 0 277.332031 47.851562 277.332031 106.667969 L 277.332031 165.332031 C 277.332031 174.164062 270.164062 181.332031 261.332031 181.332031 Z M 261.332031 181.332031 "/>
  <path d="M 496 384 L 453.332031 384 C 444.5 384 437.332031 376.832031 437.332031 368 C 437.332031 359.167969 444.5 352 453.332031 352 L 480 352 L 480 325.332031 C 480 316.5 487.167969 309.332031 496 309.332031 C 504.832031 309.332031 512 316.5 512 325.332031 L 512 368 C 512 376.832031 504.832031 384 496 384 Z M 496 384 "/>
  <path d="M 314.667969 501.332031 C 305.835938 501.332031 298.667969 494.164062 298.667969 485.332031 L 298.667969 442.667969 C 298.667969 433.835938 305.835938 426.667969 314.667969 426.667969 L 357.332031 426.667969 C 366.164062 426.667969 373.332031 433.835938 373.332031 442.667969 C 373.332031 451.5 366.164062 458.667969 357.332031 458.667969 L 330.667969 458.667969 L 330.667969 485.332031 C 330.667969 494.164062 323.5 501.332031 314.667969 501.332031 Z M 314.667969 501.332031 "/>
  <path d="M 318.71875 394.667969 C 317.183594 394.667969 315.605469 394.433594 314.070312 393.984375 C 305.621094 391.402344 300.84375 382.464844 303.402344 374.015625 C 317.121094 328.9375 358.078125 298.667969 405.332031 298.667969 C 444.800781 298.667969 480.789062 320.320312 499.265625 355.15625 C 503.382812 362.964844 500.414062 372.652344 492.609375 376.8125 C 484.734375 380.886719 475.113281 377.960938 470.953125 370.15625 C 458.089844 345.792969 432.917969 330.667969 405.332031 330.667969 C 372.265625 330.667969 343.617188 351.828125 334.039062 383.316406 C 331.945312 390.230469 325.589844 394.667969 318.71875 394.667969 Z M 318.71875 394.667969 "/>
  <path d="M 405.332031 512 C 365.867188 512 329.878906 490.347656 311.402344 455.507812 C 307.285156 447.703125 310.25 438.015625 318.058594 433.855469 C 325.910156 429.761719 335.550781 432.703125 339.710938 440.511719 C 352.574219 464.875 377.75 480 405.332031 480 C 438.207031 480 466.878906 458.816406 476.671875 427.242188 C 479.296875 418.816406 488.234375 414.078125 496.683594 416.726562 C 505.128906 419.328125 509.824219 428.308594 507.199219 436.734375 C 493.246094 481.75 452.308594 512 405.332031 512 Z M 405.332031 512 "/>
</g>
</svg>
