<svg xmlns="http://www.w3.org/2000/svg"
  viewBox="0 0 100 100"
  stroke="currentColor"
  stroke-width="1"
  fill="none"
  stroke-linecap="round"
  stroke-linejoin="round"
>

  <path d="M 12 41, v -5
    a 18 18 0 0 1 36 0,
    v 5" />

  <path d="M 60 50, v -7, 
    a 2 2 0 0 0 -2 -2,
    h -54,
    a 2 2 0 0 0 -2 2,
    v 40,
    a 2 2 0 0 0 2 2,
    h 40
    "/>
  
  <path d="M 56 74, a 21 20 0 0 1 40 -7, m -12 0, h 12, v -12" />
  <path d="M 98 79, a 21 20 0 0 1 -40 7, m 12 0, h -12, v 12" />

</svg>
