<?xml version="1.0" encoding="UTF-8"?>
<svg version="1.1"
     id="Results_1"
     xmlns="http://www.w3.org/2000/svg"
     xmlns:xlink="http://www.w3.org/1999/xlink"
     x="0px"
     y="0px"
     viewBox="0 0 512 512"
     style="enable-background:new 0 0 512 512;"
     xml:space="preserve">
  <g>
    <g>
      <path d="m496 485.5h-470v-469c0-5.523-4.477-10-10-10s-10 4.477-10 10v479c0 5.522 4.477 10 10 10h480c5.522 0 10-4.478 10-10s-4.478-10-10-10z"/>
      <path d="m96 465.5c27.57 0 50-22.43 50-50 0-14.675-6.356-27.892-16.458-37.047l50.122-84.708c23.616 8.189 49.784-2.377 61.078-24.964l55.353 14.761c-1.702 28.932 21.394 52.958 49.905 52.958 27.57 0 50-22.43 50-50 0-12.909-4.918-24.691-12.979-33.572l52.081-71.021c6.364 2.94 13.44 4.594 20.898 4.594 27.57 0 50-22.43 50-50s-22.43-50-50-50-50 22.43-50 50c0 12.91 4.918 24.692 12.979 33.572l-52.082 71.021c-24.43-11.287-53.517-1.121-65.641 23.126l-55.352-14.76c1.697-29.114-21.56-52.96-49.905-52.96-27.57 0-50 22.43-50 50 0 14.675 6.356 27.893 16.458 37.048l-50.122 84.707c-5.122-1.777-10.615-2.755-16.335-2.755-27.57 0-50 22.43-50 50s22.43 50 50 50zm360-359c16.542 0 30 13.458 30 30s-13.458 30-30 30-30-13.458-30-30 13.458-30 30-30zm-110 150c16.542 0 30 13.458 30 30s-13.458 30-30 30-30-13.458-30-30 13.458-30 30-30zm-150-40c16.542 0 30 13.458 30 30s-13.458 30-30 30-30-13.458-30-30 13.458-30 30-30zm-100 169c16.542 0 30 13.458 30 30s-13.458 30-30 30-30-13.458-30-30 13.458-30 30-30z"/>
    </g>
  </g>
</svg>
