<svg xmlns="http://www.w3.org/2000/svg"
  viewBox="0 0 100 100"
  stroke="currentColor"
  stroke-width="1"
  fill="none"
  stroke-linecap="round"
  stroke-linejoin="round"
>

<circle cx="50" cy="50" r="15" />
<path d="
    M 3 60 a 48 48 0 0 1 0 -20 l 13.7 -.95 a 41.5 41.5 0 0 1 7.1 -12.3 l -6 -12.35
    a 48 48 0 0 1 17.325 -10 l 7.65 11.4 a 41.5 41.5 0 0 1 14.2 0 l 7.65 -11.4
    a 48 48 0 0 1 17.325 10 l -6 12.35 a 41.5 41.5 0 0 1 7.1 12.3 l 13.7 .95
    a 48 48 0 0 1 0 20 l -13.7 .95 a 41.5 41.5 0 0 1 -7.1 12.3 l 6 12.35
    a 48 48 0 0 1 -17.325 10 l -7.65 -11.4 a 41.5 41.5 0 0 1 -14.2 0 l -7.65 11.4
    a 48 48 0 0 1 -17.325 -10 l 6 -12.35 a 41.5 41.5 0 0 1 -7.1 -12.3 z"
  />

</svg>
