<svg xmlns="http://www.w3.org/2000/svg"
  viewBox="0 0 100 100"
  stroke="currentColor"
  stroke-width="1"
  fill="none"
  stroke-linecap="round"
  stroke-linejoin="round"
>

  <path d="M 29 78, l 4.5 -17, 
    l 50 -50,
    a 6.5 6.5 0 1 1 13 13
    l -50 50
    l -17 4.5
    z" />
  
  <path d="M 69 15, h -25, 
    m -33 22 
    v 60
    a 2 2 0 0 0 2 2,
    h 75, 
    a 2 2 0 0 0 2 -2, 
    v -55"/>

  <path d="
    M 27 2,
    a 25 25 0 0 0 25 25,
    a 25 25 0 0 0 -25 25,
    a 25 25 0 0 0 -25 -25,
    a 25 25 0 0 0 25 -25,    
  " />

</svg>
