<?xml version="1.0" encoding="iso-8859-1"?>
<svg version="1.1"
     id="TransferTeam_1"
     xmlns="http://www.w3.org/2000/svg"
     xmlns:xlink="http://www.w3.org/1999/xlink"
     x="0px"
     y="0px"
     viewBox="0 0 511.995 511.995"
     style="enable-background:new 0 0 511.995 511.995;"
     xml:space="preserve">
  <g>
    <path transform="translate(0, 15)" d="m350.006 330.171c-3.398-7.554-12.278-10.924-19.834-7.523l-74.172 33.377-74.172-33.377c-7.555-3.402-16.435-.032-19.834 7.523-3.4 7.554-.031 16.435 7.523 19.834l49.93 22.468-49.93 22.468c-7.555 3.399-10.923 12.28-7.523 19.834 3.39 7.534 12.262 10.933 19.834 7.523l74.172-33.376 74.172 33.377c7.601 3.422 16.457-.017 19.834-7.523 3.399-7.554.031-16.435-7.523-19.834l-49.93-22.468 49.93-22.468c7.554-3.4 10.922-12.28 7.523-19.835z"/>
    <path d="m505.168 405.042-205.405-348.124c-9.022-15.295-25.792-24.797-43.763-24.797s-34.739 9.502-43.762 24.796l-205.405 348.122c-9.114 15.439-9.111 34.624.012 50.07 9.031 15.278 25.794 24.77 43.748 24.77h410.813c17.954 0 34.718-9.492 43.751-24.774 9.12-15.442 9.124-34.626.011-50.063zm-25.842 34.808c-3.655 6.183-10.523 10.03-17.919 10.03h-410.814c-7.396 0-14.264-3.845-17.923-10.035-3.56-6.027-3.562-13.524-.003-19.555l205.408-348.128c3.654-6.194 10.522-10.041 17.924-10.041 7.403 0 14.271 3.847 17.924 10.04l205.407 348.127c3.563 6.033 3.56 13.527-.004 19.562z"/>
    <path transform="scale(.5, .5) translate(256, 250)" d="M437.02,330.98c-27.883-27.882-61.071-48.523-97.281-61.018C378.521,243.251,404,198.548,404,148
			C404,66.393,337.607,0,256,0S108,66.393,108,148c0,50.548,25.479,95.251,64.262,121.962
			c-36.21,12.495-69.398,33.136-97.281,61.018C26.629,379.333,0,443.62,0,512h40c0-119.103,96.897-216,216-216s216,96.897,216,216
			h40C512,443.62,485.371,379.333,437.02,330.98z M256,256c-59.551,0-108-48.448-108-108S196.449,40,256,40
			c59.551,0,108,48.448,108,108S315.551,256,256,256z" />
  </g>
</svg>