<?xml version="1.0" encoding="iso-8859-1"?>
<svg version="1.1"
     id="TransferTeam_1"
     xmlns="http://www.w3.org/2000/svg"
     xmlns:xlink="http://www.w3.org/1999/xlink"
     x="0px"
     y="0px"
     viewBox="0 0 511.995 511.995"
     style="enable-background:new 0 0 511.995 511.995;"
     xml:space="preserve">
  	<g>
			<path stroke="currentColor" stroke-width="8" transform="translate(0,30)" d="M448,309.333c-20.827,0-64,11.598-85.885,17.885c-2.904-30.609-42.125-41.444-82.656-49.677
				c-18.5-3.75-32.271-10.385-45.583-16.813c-16.417-7.917-31.917-15.396-52.542-15.396c-23.618,0-45.142,4.831-57.288,8.173
				c-3.211-11.172-12.32-20.177-24.421-22.59L12.75,213.542c-3.104-0.625-6.375,0.188-8.854,2.208C1.438,217.781,0,220.802,0,224
				v170.667c0,5.896,4.771,10.667,10.667,10.667H77.5c13.172,0,24.397-8.379,29.223-20.142C130.625,396.586,241.081,448,288,448
				c41.375,0,126.563-41.875,182.917-69.583c14.688-7.219,26.833-13.198,34.708-16.646C509.5,360.063,512,356.229,512,352
				C512,326.875,485.688,309.333,448,309.333z M103.917,263.802L88.063,374.844C87.313,380.063,82.771,384,77.5,384H21.333V237.01
				l74.125,14.823C101,252.948,104.729,258.198,103.917,263.802z M461.5,359.271c-51.271,25.208-137.083,67.396-173.5,67.396
				c-38.792,0-140.688-45.427-176.667-62.927c-0.04-0.02-0.085-0.013-0.125-0.031l12.551-87.904
				c7.772-2.431,31.518-9.138,57.574-9.138c15.75,0,27.896,5.865,43.292,13.281c13.813,6.667,29.479,14.219,50.583,18.51
				c46.354,9.396,66.125,19.031,66.125,32.208c0,2.604-0.792,4.208-2.813,5.719c-6.771,5.073-33.271,13.594-132.813-15.948
				c-5.688-1.646-11.583,1.552-13.271,7.198c-1.667,5.646,1.542,11.583,7.188,13.26c49.146,14.563,86.708,21.823,113.333,21.823
				c17.354,0,30.083-3.083,38.313-9.24c0.708-0.529,1.227-1.176,1.871-1.745c0.671-0.074,1.331,0.004,2.004-0.203
				C374,345.729,427.438,330.667,448,330.667c17.396,0,35.708,5.281,41.083,15.208C481.646,349.375,472.25,354,461.5,359.271z"/>
      <path stroke="currentColor" stroke-width="4" transform="scale(-1, 1) translate(-492, 0)" d="M 191.082031 216.628906 C 183.011719 210.996094 174.390625 206.410156 165.371094 202.90625 
        C 177.367188 192 185.328125 176.726562 186.710938 159.625 C 204.90625 141.898438 228.753906 132.179688 254.316406 132.179688 C 274.277344 
        132.179688 293.4375 138.191406 309.738281 149.558594 C 315.578125 153.632812 323.609375 152.203125 327.683594 146.359375 C 331.753906 
        140.523438 330.324219 132.488281 324.488281 128.417969 C 316.417969 122.785156 307.792969 118.203125 298.773438 114.695312 C 312.011719 
        102.664062 320.335938 85.3125 320.335938 66.058594 C 320.335938 29.808594 290.847656 0.324219 254.601562 0.324219 C 218.355469 0.324219 
        188.867188 29.808594 188.867188 66.058594 C 188.867188 85.234375 197.121094 102.523438 210.269531 114.550781 C 208.46875 115.242188 
        206.679688 115.972656 204.90625 116.753906 C 196.839844 120.304688 189.257812 124.671875 182.207031 129.796875 C 172.480469 105.632812
        148.800781 88.535156 121.199219 88.535156 C 84.953125 88.535156 55.464844 118.019531 55.464844 154.265625 C 55.464844 173.390625 63.671875 
        190.628906 76.75 202.652344 C 41.785156 215.75 13.4375 243.886719 1.894531 279.769531 C -1.929688 291.667969 0.09375 304.289062 7.457031 
        314.390625 C 14.820312 324.492188 26.210938 330.285156 38.707031 330.285156 L 150.84375 330.285156 C 157.960938 330.285156 163.734375 
        324.515625 163.734375 317.394531 C 163.734375 310.277344 157.960938 304.507812 150.84375 304.507812 L 38.707031 304.507812 C 34.539062 
        304.507812 30.742188 302.574219 28.289062 299.207031 C 25.835938 295.835938 25.160156 291.628906 26.433594 287.664062 C 39.171875 248.054688 
        78.027344 220.390625 120.917969 220.390625 C 140.871094 220.390625 160.035156 226.402344 176.335938 237.769531 C 182.175781 241.84375 
        190.210938 240.410156 194.28125 234.570312 C 198.355469 228.734375 196.925781 220.699219 191.082031 216.628906 Z M 254.601562 26.101562 
        C 276.632812 26.101562 294.554688 44.023438 294.554688 66.058594 C 294.554688 88.085938 276.632812 106.015625 254.601562 106.015625 C 
        232.570312 106.015625 214.644531 88.085938 214.644531 66.058594 C 214.644531 44.023438 232.570312 26.101562 254.601562 26.101562 Z M 
        121.199219 114.308594 C 143.230469 114.308594 161.15625 132.234375 161.15625 154.265625 C 161.15625 176.296875 143.230469 194.222656 
        121.199219 194.222656 C 99.164062 194.222656 81.242188 176.296875 81.242188 154.265625 C 81.242188 132.234375 99.164062 114.308594 121.199219 
        114.308594 Z M 330.003906 269.0625 L 330.003906 269.0625 " />
    </g>	
</svg>
