<svg xmlns="http://www.w3.org/2000/svg"
  viewBox="0 0 100 100"
  stroke="currentColor"
  stroke-width="1"
  fill="none"
  stroke-linecap="round"
  stroke-linejoin="round"
>

  <path d="M 57 32,
    a 15 15 0 1 1 0 -30, a 15 15 0 1 1 0 30,
    m -27.5 18, a 30 30 0 0 1 55 0,
    m -44.5 -37.5, a 10 10 0 1 0 4 16.5,
    m -25.25 15, a 20 20 0 0 1 24 -11.25,
    m 31.25 -20.25, a 10 10 0 1 1 -4 16.5,
    m 25.25 15, a 20 20 0 0 0 -24 -11.25,
    "
  />
  
  <path d="M 2 56, v 39, a 3 3 0 0 0 3 3, h 10, a 3 3 0 0 0 3 -3, v -39,
    a 3 3 0 0 0 -3 -3, h -10, a 3 3 0 0 0 -3 3,
    m 16 3, l 14 -6, a 3 3 0 0 1 3 0 ,l 22 11, a 5 5 0 0 1 -4 9.5, l -18 -4,
    m -17 20, l 33 7, a 5 5 0 0 0 4 -.75, l 41 -29, a 5 5 0 0 0 -6 -9, l -22 11
  "/>
  
</svg>
